<svg width="20" height="20" viewBox="0 0 20 20" fill="none" xmlns="http://www.w3.org/2000/svg">
<path d="M19.4562 16.8218L15.505 12.87L16.0318 12.3431L15.505 11.8162L13.9252 13.3962L11.2903 10.7617L14.4555 7.59469C14.8768 7.74493 15.3177 7.8211 15.7705 7.8211C16.8137 7.8211 17.7947 7.4144 18.5332 6.67715C19.6721 5.53739 19.9949 3.84416 19.3563 2.36268L19.139 1.85814L17.4411 3.55625L16.0744 3.57512L16.0926 2.27114L17.8233 0.540182L17.3203 0.322152C16.827 0.108316 16.3022 0 15.7628 0C14.7189 0 13.7386 0.406709 13.0015 1.14396C11.9213 2.22362 11.574 3.80084 12.0855 5.22502L8.921 8.38994L4.44293 3.91195L4.96976 3.38505L2.07359 0.487771L0.491695 2.06778L3.38927 4.96576L3.9154 4.43885L8.39347 8.91684L5.22898 12.0818C4.80626 11.9301 4.36328 11.8539 3.90981 11.8539C2.86663 11.8539 1.88563 12.2607 1.14779 12.9979C0.0067867 14.1384 -0.31602 15.8344 0.3261 17.3173L0.544099 17.8204L2.27482 16.0894L3.57792 16.072L3.55906 17.4389L1.86118 19.137L2.36565 19.3543C2.85754 19.566 3.38018 19.6744 3.9175 19.6744C4.96138 19.6744 5.94167 19.2683 6.67882 18.5311C7.75764 17.4521 8.1049 15.8763 7.59693 14.4549L10.7635 11.2879L13.3984 13.9217L11.8172 15.5031L12.344 16.0301L12.8708 15.5031L16.8214 19.4542C17.1728 19.8064 17.6417 20 18.1384 20C18.6352 20 19.1034 19.8064 19.4555 19.4542C20.1815 18.7282 20.1815 17.5465 19.4555 16.8204L19.4562 16.8218ZM1.54606 2.06848L2.07289 1.54228L3.9161 3.38574L3.38927 3.91265L1.54606 2.06848ZM6.82066 14.5129C7.33701 15.7121 7.07499 17.0839 6.15339 18.0063C5.55668 18.6031 4.76364 18.9315 3.91889 18.9315C3.67644 18.9315 3.43748 18.9043 3.20551 18.8505L4.30179 17.754L4.33463 15.3187L1.96319 15.3508L0.831969 16.4822C0.583227 15.427 0.888565 14.3138 1.67602 13.5269C2.27272 12.9301 3.06646 12.601 3.91121 12.601C4.3486 12.601 4.77272 12.6883 5.17309 12.8616L5.40576 12.9623L12.9652 5.40182L12.8645 5.16911C12.3447 3.96785 12.606 2.59609 13.5297 1.67226C14.1264 1.07547 14.9202 0.746331 15.7642 0.746331C16.0088 0.746331 16.2498 0.774284 16.4839 0.828092L15.3534 1.95877L15.3205 4.33054L17.7556 4.29769L18.8525 3.20056C19.0985 4.25367 18.7924 5.36478 18.0078 6.15024C17.4104 6.74703 16.6166 7.07617 15.7719 7.07617C15.3359 7.07617 14.9125 6.98882 14.5135 6.81691L14.2815 6.71698L6.72074 14.2802L6.82066 14.5129ZM18.9301 18.9287C18.7191 19.1398 18.4382 19.2565 18.1398 19.2565C17.8415 19.2565 17.5606 19.1398 17.3496 18.9287L13.3991 14.9776L14.9796 13.3969L18.9308 17.3487C19.3668 17.7848 19.3668 18.4934 18.9315 18.9287H18.9301Z" fill="#4ADE80"/>
</svg>
